<mxfile host="Electron" agent="Mozilla/5.0 (X11; Linux x86_64) AppleWebKit/537.36 (KHTML, like Gecko) draw.io/26.2.2 Chrome/134.0.6998.178 Electron/35.1.2 Safari/537.36" version="26.2.2">
  <diagram name="Page-1" id="g9OeHaTdMhLbQ2y1j-y2">
    <mxGraphModel dx="1428" dy="856" grid="1" gridSize="10" guides="1" tooltips="1" connect="1" arrows="1" fold="1" page="1" pageScale="1" pageWidth="640" pageHeight="640" background="#202020" math="0" shadow="0">
      <root>
        <mxCell id="0" />
        <mxCell id="1" parent="0" />
        <mxCell id="g-p6yCZMErQWyolwNlbl-1" value="&lt;font style=&quot;font-size: 160px;&quot;&gt;T2&lt;/font&gt;&lt;div&gt;&lt;br&gt;&lt;/div&gt;" style="text;html=1;align=center;verticalAlign=middle;whiteSpace=wrap;rounded=0;fontColor=#D4E1F5;fontStyle=1" vertex="1" parent="1">
          <mxGeometry x="150" y="290" width="341" height="300" as="geometry" />
        </mxCell>
        <mxCell id="g-p6yCZMErQWyolwNlbl-2" value="" style="sketch=0;verticalLabelPosition=bottom;sketch=0;aspect=fixed;html=1;verticalAlign=top;strokeColor=none;fillColor=#D4E1F5;align=center;outlineConnect=0;pointerEvents=1;shape=mxgraph.citrix2.bot_mitigation;strokeWidth=5;" vertex="1" parent="1">
          <mxGeometry x="173" y="80" width="294.21" height="270" as="geometry" />
        </mxCell>
      </root>
    </mxGraphModel>
  </diagram>
</mxfile>
